<svg fill="none" height="350" viewBox="0 0 250 350" width="250" xmlns="http://www.w3.org/2000/svg">
  <defs>
    <clipPath id="clip0_104_6">
      <rect fill="white" height="350" width="250"/>
    </clipPath>
    <linearGradient gradientUnits="userSpaceOnUse" id="paint1_linear_104_6" x1="119.5" x2="250" y1="18.5"
        y2="350">
      <stop stop-color="#FFA2B8"/>
      <stop offset="1" stop-color="#A7B5FF"/>
    </linearGradient>
    <linearGradient gradientUnits="userSpaceOnUse" id="paint0_linear_104_6" x1="-17" x2="265.5" y1="-36"
        y2="396.5">
      <stop stop-color="#0D0D0E"/>
      <stop offset="1" stop-color="#120828"/>
    </linearGradient>
  </defs>
  <g clip-path="url(#clip0_104_6)">
    <g mask="url(#mask0_104_6)">
      <rect fill="url(#paint1_linear_104_6)" height="350" rx="10" width="250"/>
    </g>
    <mask style="mask-type:alpha" height="318" id="mask0_104_6" maskUnits="userSpaceOnUse" width="230"
        x="10" y="16">
      <g mask="url(#mask1_104_6)">
        <path clip-rule="evenodd" d="M138.887 259.155C137.512 258.404 132.122 255.057 131.866 255.462C125.255 265.934 136.193 290.524 138.792 299.473C139.501 301.913 141.387 309.528 139.409 315.83C140.806 311.378 142.465 306.921 142.454 301.594C142.423 287.597 133.545 273.437 139.026 259.748C139.086 259.599 139.086 259.263 138.887 259.155ZM118.784 259.155C117.409 258.404 112.02 255.057 111.764 255.462C105.152 265.934 116.09 290.524 118.689 299.473C119.398 301.913 121.285 309.528 119.307 315.83C120.704 311.378 122.362 306.921 122.351 301.594C122.32 287.597 113.442 273.437 118.923 259.748C118.982 259.599 118.982 259.263 118.784 259.155ZM77.3407 234.209C78.8146 235.871 81.0446 235.736 83.5613 235.812C84.5311 235.845 86.0031 235.652 86.6624 236.344C87.466 237.188 87.1117 239.067 87.1464 240.126C87.2323 242.502 87.4112 245.026 88.6568 245.87C89.9006 246.708 94.4244 246.283 97.3776 246.283H152.537C155.812 246.283 159.552 246.862 161.864 246.283C164.122 245.715 164.237 242.687 164.381 239.883C164.5 237.604 165.267 235.845 167.809 236.022C170.766 236.225 173.708 236.289 175.045 234.318C176.85 231.654 176.166 228.847 175.454 223.178H76.4878C75.9892 227.745 75.2021 231.796 77.3407 234.209ZM167.747 218.842C165.362 195.07 163.017 171.256 160.65 147.464H157.492C156.84 143.494 155.903 136.702 155.173 133.193H96.364C96.07 137.007 94.6564 143.267 94.0829 147.464H90.8886C88.5582 171.499 86.0762 195.38 83.7877 219.461H167.542C167.784 219.426 167.767 219.136 167.747 218.842Z"
            fill="white"
            fill-rule="evenodd"/>
      </g>
      <g mask="url(#mask2_104_6)">
        <path clip-rule="evenodd" d="M113.234 91.7676C114.61 92.5182 119.999 95.866 120.255 95.4605C126.866 84.9882 115.928 60.3982 113.329 51.4491C112.621 49.0091 110.734 41.395 112.712 35.0923C111.315 39.5449 109.657 44.0012 109.667 49.3287C109.699 63.3258 118.576 77.4855 113.096 91.1741C113.035 91.3238 113.035 91.6599 113.234 91.7676ZM133.337 91.7676C134.712 92.5182 140.102 95.866 140.357 95.4605C146.969 84.9882 136.031 60.3982 133.432 51.4491C132.723 49.0091 130.837 41.395 132.815 35.0923C131.417 39.5449 129.759 44.0012 129.77 49.3287C129.801 63.3258 138.679 77.4855 133.198 91.1741C133.14 91.3238 133.14 91.6599 133.337 91.7676ZM174.781 116.714C173.307 115.052 171.077 115.187 168.56 115.11C167.59 115.077 166.118 115.271 165.459 114.579C164.655 113.735 165.01 111.856 164.975 110.796C164.889 108.42 164.71 105.896 163.465 105.053C162.221 104.214 157.697 104.64 154.744 104.64H99.5842C96.3095 104.64 92.5692 104.061 90.257 104.64C87.9996 105.208 87.8846 108.236 87.7403 111.039C87.6216 113.319 86.8545 115.077 84.3122 114.9C81.3554 114.697 78.4131 114.634 77.0762 116.604C75.2718 119.269 75.9548 122.076 76.6671 127.745H175.633C176.132 123.177 176.919 119.126 174.781 116.714ZM84.3743 132.081C86.7595 155.852 89.1046 179.666 91.4715 203.458H94.6293C95.2813 207.429 96.2182 214.221 96.9488 217.729H155.757C156.051 213.916 157.465 207.655 158.038 203.458H161.233C163.563 179.423 166.045 155.542 168.334 131.462H84.5789C84.3378 131.496 84.3542 131.787 84.3743 132.081Z"
            fill="white"
            fill-rule="evenodd"/>
      </g>
      <mask style="mask-type:alpha" height="198" id="mask2_104_6" maskUnits="userSpaceOnUse" width="218"
          x="-2" y="1">
        <rect fill="white" height="135.151" transform="rotate(-25 -2 75.6129)" width="176.549" x="-2"
            y="75.6129"/>
      </mask>
      <mask style="mask-type:alpha" height="198" id="mask1_104_6" maskUnits="userSpaceOnUse" width="218"
          x="30" y="152">
        <rect fill="white" height="135.151" transform="rotate(-25 30.8747 227.287)" width="176.549"
            x="30.8747" y="227.287"/>
      </mask>
      <path
          d="M232.36 309.68C234.6 309.68 236.36 310.309 237.64 311.568C238.92 312.827 239.56 314.544 239.56 316.72H236.68C236.68 315.291 236.307 314.181 235.56 313.392C234.792 312.624 233.725 312.24 232.36 312.24C230.995 312.24 229.939 312.624 229.192 313.392C228.424 314.181 228.04 315.291 228.04 316.72V330.736H234.6V333.36H225.16V316.72C225.16 314.544 225.811 312.827 227.112 311.568C228.392 310.309 230.141 309.68 232.36 309.68ZM239.4 278L233.32 301.36H229.448L223.4 278H226.312L227.848 284.208H234.92L236.456 278H239.4ZM234.344 286.64H228.456L230.248 293.84C230.589 295.205 230.856 296.347 231.048 297.264C231.24 298.181 231.357 298.779 231.4 299.056C231.443 298.779 231.56 298.181 231.752 297.264C231.944 296.347 232.211 295.216 232.552 293.872L234.344 286.64ZM231.272 245.68C233.405 245.68 235.091 246.277 236.328 247.472C237.565 248.667 238.184 250.309 238.184 252.4V262.96C238.184 265.051 237.565 266.693 236.328 267.888C235.091 269.083 233.405 269.68 231.272 269.68C229.181 269.68 227.517 269.072 226.28 267.856C225.043 266.661 224.424 265.029 224.424 262.96H227.304C227.304 264.283 227.656 265.296 228.36 266C229.043 266.725 230.013 267.088 231.272 267.088C232.531 267.088 233.523 266.736 234.248 266.032C234.952 265.328 235.304 264.315 235.304 262.992V252.4C235.304 251.077 234.952 250.053 234.248 249.328C233.523 248.624 232.531 248.272 231.272 248.272C230.013 248.272 229.043 248.624 228.36 249.328C227.656 250.053 227.304 251.077 227.304 252.4H224.424C224.424 250.331 225.043 248.688 226.28 247.472C227.517 246.277 229.181 245.68 231.272 245.68ZM238.056 214L238.056 237.36H235.176V227.344H231.72L226.536 237.36H223.4L229.192 226.128L223.08 214H226.376L231.816 224.816H235.176L235.176 214H238.056Z"
          fill="white"/>
      <path
          d="M17.64 40.32C15.4 40.32 13.64 39.6907 12.36 38.432C11.08 37.1733 10.44 35.456 10.44 33.28H13.32C13.32 34.7093 13.6933 35.8187 14.44 36.608C15.208 37.376 16.2747 37.76 17.64 37.76C19.0053 37.76 20.0613 37.376 20.808 36.608C21.576 35.8187 21.96 34.7093 21.96 33.28V19.264H15.4V16.64H24.84V33.28C24.84 35.456 24.1893 37.1733 22.888 38.432C21.608 39.6907 19.8587 40.32 17.64 40.32ZM10.6 72L16.68 48.64H20.552L26.6 72H23.688L22.152 65.792H15.08L13.544 72H10.6ZM15.656 63.36H21.544L19.752 56.16C19.4107 54.7947 19.144 53.6533 18.952 52.736C18.76 51.8187 18.6427 51.2213 18.6 50.944C18.5573 51.2213 18.44 51.8187 18.248 52.736C18.056 53.6533 17.7893 54.784 17.448 56.128L15.656 63.36ZM18.728 104.32C16.5947 104.32 14.9093 103.723 13.672 102.528C12.4347 101.333 11.816 99.6907 11.816 97.6V87.04C11.816 84.9493 12.4347 83.3067 13.672 82.112C14.9093 80.9173 16.5947 80.32 18.728 80.32C20.8187 80.32 22.4827 80.928 23.72 82.144C24.9573 83.3387 25.576 84.9707 25.576 87.04H22.696C22.696 85.7173 22.344 84.704 21.64 84C20.9573 83.2747 19.9867 82.912 18.728 82.912C17.4693 82.912 16.4773 83.264 15.752 83.968C15.048 84.672 14.696 85.6853 14.696 87.008V97.6C14.696 98.9227 15.048 99.9467 15.752 100.672C16.4773 101.376 17.4693 101.728 18.728 101.728C19.9867 101.728 20.9573 101.376 21.64 100.672C22.344 99.9467 22.696 98.9227 22.696 97.6H25.576C25.576 99.6693 24.9573 101.312 23.72 102.528C22.4827 103.723 20.8187 104.32 18.728 104.32ZM11.944 136V112.64H14.824V122.656H18.28L23.464 112.64H26.6L20.808 123.872L26.92 136H23.624L18.184 125.184H14.824V136H11.944Z"
          fill="white"/>
    </mask>
    <rect fill="url(#paint0_linear_104_6)" height="350" rx="10" width="250"/>
  </g>
</svg>