<svg width="250" height="350" viewBox="0 0 250 350" fill="none" xmlns="http://www.w3.org/2000/svg">
<g clip-path="url(#clip0_103_3)">
<rect width="250" height="350" rx="10" fill="black"/>
<path d="M21.34 43.42C18.4 43.42 16.09 42.594 14.41 40.942C12.73 39.29 11.89 37.036 11.89 34.18H15.67C15.67 36.056 16.16 37.512 17.14 38.548C18.148 39.556 19.548 40.06 21.34 40.06C23.132 40.06 24.518 39.556 25.498 38.548C26.506 37.512 27.01 36.056 27.01 34.18V15.784H18.4V12.34H30.79V34.18C30.79 37.036 29.936 39.29 28.228 40.942C26.548 42.594 24.252 43.42 21.34 43.42ZM12.1 98L20.08 67.34H25.162L33.1 98H29.278L27.262 89.852H17.98L15.964 98H12.1ZM18.736 86.66H26.464L24.112 77.21C23.664 75.418 23.314 73.92 23.062 72.716C22.81 71.512 22.656 70.728 22.6 70.364C22.544 70.728 22.39 71.512 22.138 72.716C21.886 73.92 21.536 75.404 21.088 77.168L18.736 86.66ZM22.768 153.42C19.968 153.42 17.756 152.636 16.132 151.068C14.508 149.5 13.696 147.344 13.696 144.6V130.74C13.696 127.996 14.508 125.84 16.132 124.272C17.756 122.704 19.968 121.92 22.768 121.92C25.512 121.92 27.696 122.718 29.32 124.314C30.944 125.882 31.756 128.024 31.756 130.74H27.976C27.976 129.004 27.514 127.674 26.59 126.75C25.694 125.798 24.42 125.322 22.768 125.322C21.116 125.322 19.814 125.784 18.862 126.708C17.938 127.632 17.476 128.962 17.476 130.698V144.6C17.476 146.336 17.938 147.68 18.862 148.632C19.814 149.556 21.116 150.018 22.768 150.018C24.42 150.018 25.694 149.556 26.59 148.632C27.514 147.68 27.976 146.336 27.976 144.6H31.756C31.756 147.316 30.944 149.472 29.32 151.068C27.696 152.636 25.512 153.42 22.768 153.42ZM13.864 208V177.34H17.644V190.486H22.18L28.984 177.34H33.1L25.498 192.082L33.52 208H29.194L22.054 193.804H17.644V208H13.864Z" fill="white"/>
<path d="M227.156 173.42C224.216 173.42 221.906 172.594 220.226 170.942C218.546 169.29 217.706 167.036 217.706 164.18H221.486C221.486 166.056 221.976 167.512 222.956 168.548C223.964 169.556 225.364 170.06 227.156 170.06C228.948 170.06 230.334 169.556 231.314 168.548C232.322 167.512 232.826 166.056 232.826 164.18V145.784H224.216V142.34H236.606V164.18C236.606 167.036 235.752 169.29 234.044 170.942C232.364 172.594 230.068 173.42 227.156 173.42ZM217.916 228L225.896 197.34H230.978L238.916 228H235.094L233.078 219.852H223.796L221.78 228H217.916ZM224.552 216.66H232.28L229.928 207.21C229.48 205.418 229.13 203.92 228.878 202.716C228.626 201.512 228.472 200.728 228.416 200.364C228.36 200.728 228.206 201.512 227.954 202.716C227.702 203.92 227.352 205.404 226.904 207.168L224.552 216.66ZM228.584 283.42C225.784 283.42 223.572 282.636 221.948 281.068C220.324 279.5 219.512 277.344 219.512 274.6V260.74C219.512 257.996 220.324 255.84 221.948 254.272C223.572 252.704 225.784 251.92 228.584 251.92C231.328 251.92 233.512 252.718 235.136 254.314C236.76 255.882 237.572 258.024 237.572 260.74H233.792C233.792 259.004 233.33 257.674 232.406 256.75C231.51 255.798 230.236 255.322 228.584 255.322C226.932 255.322 225.63 255.784 224.678 256.708C223.754 257.632 223.292 258.962 223.292 260.698V274.6C223.292 276.336 223.754 277.68 224.678 278.632C225.63 279.556 226.932 280.018 228.584 280.018C230.236 280.018 231.51 279.556 232.406 278.632C233.33 277.68 233.792 276.336 233.792 274.6H237.572C237.572 277.316 236.76 279.472 235.136 281.068C233.512 282.636 231.328 283.42 228.584 283.42ZM219.68 338V307.34H223.46V320.486H227.996L234.8 307.34H238.916L231.314 322.082L239.336 338H235.01L227.87 323.804H223.46V338H219.68Z" fill="white"/>
<path fill-rule="evenodd" clip-rule="evenodd" d="M114.642 146.548C115.772 147.164 120.198 149.914 120.408 149.581C125.838 140.98 116.855 120.784 114.72 113.434C114.138 111.43 112.589 105.176 114.213 100C113.066 103.657 111.704 107.317 111.713 111.692C111.738 123.188 119.03 134.818 114.528 146.06C114.479 146.183 114.479 146.459 114.642 146.548ZM131.152 146.548C132.282 147.164 136.708 149.914 136.918 149.581C142.348 140.98 133.365 120.784 131.23 113.434C130.648 111.43 129.099 105.176 130.723 100C129.576 103.657 128.214 107.317 128.223 111.692C128.248 123.188 135.54 134.818 131.038 146.06C130.99 146.183 130.99 146.459 131.152 146.548ZM165.19 167.036C163.98 165.671 162.148 165.782 160.081 165.719C159.285 165.692 158.076 165.851 157.534 165.282C156.874 164.589 157.165 163.046 157.137 162.176C157.066 160.224 156.919 158.151 155.896 157.458C154.875 156.77 151.159 157.119 148.734 157.119H103.431C100.742 157.119 97.6697 156.644 95.7708 157.119C93.9168 157.586 93.8223 160.073 93.7038 162.375C93.6063 164.247 92.9763 165.692 90.8883 165.546C88.4598 165.38 86.0434 165.327 84.9454 166.946C83.4634 169.134 84.0244 171.44 84.6094 176.096H165.891C166.3 172.344 166.947 169.017 165.19 167.036ZM90.9393 179.657C92.8983 199.181 94.8243 218.739 96.7683 238.279H99.3617C99.8972 241.54 100.667 247.119 101.267 250H149.566C149.808 246.868 150.969 241.726 151.44 238.279H154.063C155.977 218.539 158.016 198.926 159.895 179.148H91.1073C90.9093 179.177 90.9228 179.415 90.9393 179.657Z" fill="white"/>
</g>
<defs>
<clipPath id="clip0_103_3">
<rect width="250" height="350" fill="white"/>
</clipPath>
</defs>
</svg>
