<svg width="250" height="350" viewBox="0 0 250 350" fill="none" xmlns="http://www.w3.org/2000/svg">
<g clip-path="url(#clip0_104_6)">
<rect width="250" height="350" rx="10" fill="url(#paint0_linear_104_6)"/>
<mask id="mask0_104_6" style="mask-type:alpha" maskUnits="userSpaceOnUse" x="10" y="9" width="230" height="332">
<path d="M229.66 309.58C232.6 309.58 234.91 310.406 236.59 312.058C238.27 313.71 239.11 315.964 239.11 318.82H235.33C235.33 316.944 234.84 315.488 233.86 314.452C232.852 313.444 231.452 312.94 229.66 312.94C227.868 312.94 226.482 313.444 225.502 314.452C224.494 315.488 223.99 316.944 223.99 318.82V337.216H232.6V340.66H220.21V318.82C220.21 315.964 221.064 313.71 222.772 312.058C224.452 310.406 226.748 309.58 229.66 309.58ZM238.9 268L230.92 298.66H225.838L217.9 268H221.722L223.738 276.148H233.02L235.036 268H238.9ZM232.264 279.34H224.536L226.888 288.79C227.336 290.582 227.686 292.08 227.938 293.284C228.19 294.488 228.344 295.272 228.4 295.636C228.456 295.272 228.61 294.488 228.862 293.284C229.114 292.08 229.464 290.596 229.912 288.832L232.264 279.34ZM228.232 225.58C231.032 225.58 233.244 226.364 234.868 227.932C236.492 229.5 237.304 231.656 237.304 234.4V248.26C237.304 251.004 236.492 253.16 234.868 254.728C233.244 256.296 231.032 257.08 228.232 257.08C225.488 257.08 223.304 256.282 221.68 254.686C220.056 253.118 219.244 250.976 219.244 248.26H223.024C223.024 249.996 223.486 251.326 224.41 252.25C225.306 253.202 226.58 253.678 228.232 253.678C229.884 253.678 231.186 253.216 232.138 252.292C233.062 251.368 233.524 250.038 233.524 248.302V234.4C233.524 232.664 233.062 231.32 232.138 230.368C231.186 229.444 229.884 228.982 228.232 228.982C226.58 228.982 225.306 229.444 224.41 230.368C223.486 231.32 223.024 232.664 223.024 234.4H219.244C219.244 231.684 220.056 229.528 221.68 227.932C223.304 226.364 225.488 225.58 228.232 225.58ZM237.136 184V214.66H233.356V201.514H228.82L222.016 214.66H217.9L225.502 199.918L217.48 184H221.806L228.946 198.196H233.356V184H237.136Z" fill="white"/>
<path d="M20.34 40.42C17.4 40.42 15.09 39.594 13.41 37.942C11.73 36.29 10.89 34.036 10.89 31.18H14.67C14.67 33.056 15.16 34.512 16.14 35.548C17.148 36.556 18.548 37.06 20.34 37.06C22.132 37.06 23.518 36.556 24.498 35.548C25.506 34.512 26.01 33.056 26.01 31.18V12.784H17.4V9.34H29.79V31.18C29.79 34.036 28.936 36.29 27.228 37.942C25.548 39.594 23.252 40.42 20.34 40.42ZM11.1 82L19.08 51.34H24.162L32.1 82H28.278L26.262 73.852H16.98L14.964 82H11.1ZM17.736 70.66H25.464L23.112 61.21C22.664 59.418 22.314 57.92 22.062 56.716C21.81 55.512 21.656 54.728 21.6 54.364C21.544 54.728 21.39 55.512 21.138 56.716C20.886 57.92 20.536 59.404 20.088 61.168L17.736 70.66ZM21.768 124.42C18.968 124.42 16.756 123.636 15.132 122.068C13.508 120.5 12.696 118.344 12.696 115.6V101.74C12.696 98.996 13.508 96.84 15.132 95.272C16.756 93.704 18.968 92.92 21.768 92.92C24.512 92.92 26.696 93.718 28.32 95.314C29.944 96.882 30.756 99.024 30.756 101.74H26.976C26.976 100.004 26.514 98.674 25.59 97.75C24.694 96.798 23.42 96.322 21.768 96.322C20.116 96.322 18.814 96.784 17.862 97.708C16.938 98.632 16.476 99.962 16.476 101.698V115.6C16.476 117.336 16.938 118.68 17.862 119.632C18.814 120.556 20.116 121.018 21.768 121.018C23.42 121.018 24.694 120.556 25.59 119.632C26.514 118.68 26.976 117.336 26.976 115.6H30.756C30.756 118.316 29.944 120.472 28.32 122.068C26.696 123.636 24.512 124.42 21.768 124.42ZM12.864 166V135.34H16.644V148.486H21.18L27.984 135.34H32.1L24.498 150.082L32.52 166H28.194L21.054 151.804H16.644V166H12.864Z" fill="white"/>
<mask id="mask1_104_6" style="mask-type:alpha" maskUnits="userSpaceOnUse" x="47" y="153" width="179" height="162">
<rect x="47" y="214.28" width="145" height="111" transform="rotate(-25 47 214.28)" fill="white"/>
</mask>
<g mask="url(#mask1_104_6)">
<path fill-rule="evenodd" clip-rule="evenodd" d="M135.711 240.452C134.581 239.836 130.155 237.086 129.945 237.419C124.515 246.02 133.498 266.216 135.633 273.566C136.215 275.57 137.764 281.824 136.14 287C137.287 283.343 138.649 279.683 138.64 275.308C138.615 263.812 131.323 252.182 135.825 240.94C135.874 240.817 135.874 240.541 135.711 240.452ZM119.2 240.452C118.071 239.836 113.644 237.086 113.434 237.419C108.004 246.02 116.988 266.216 119.122 273.566C119.704 275.57 121.254 281.824 119.629 287C120.777 283.343 122.139 279.683 122.13 275.308C122.104 263.812 114.813 252.182 119.314 240.94C119.362 240.817 119.362 240.541 119.2 240.452ZM85.1626 219.964C86.3731 221.329 88.2046 221.218 90.2716 221.281C91.0681 221.308 92.2771 221.149 92.8185 221.718C93.4785 222.411 93.1875 223.954 93.216 224.824C93.2865 226.776 93.4335 228.849 94.4565 229.542C95.478 230.23 99.1935 229.881 101.619 229.881H146.922C149.611 229.881 152.683 230.356 154.582 229.881C156.436 229.414 156.53 226.927 156.649 224.625C156.746 222.753 157.376 221.308 159.464 221.454C161.893 221.62 164.309 221.673 165.407 220.054C166.889 217.866 166.328 215.56 165.743 210.904H84.4621C84.0526 214.656 83.4061 217.983 85.1626 219.964ZM159.413 207.343C157.454 187.819 155.528 168.261 153.584 148.721H150.991C150.455 145.46 149.686 139.881 149.086 137H100.786C100.545 140.132 99.384 145.274 98.913 148.721H96.2895C94.3755 168.461 92.337 188.074 90.4576 207.852H159.245C159.443 207.823 159.43 207.585 159.413 207.343Z" fill="white"/>
</g>
<mask id="mask2_104_6" style="mask-type:alpha" maskUnits="userSpaceOnUse" x="20" y="35" width="179" height="162">
<rect x="20" y="96.2796" width="145" height="111" transform="rotate(-25 20 96.2796)" fill="white"/>
</mask>
<g mask="url(#mask2_104_6)">
<path fill-rule="evenodd" clip-rule="evenodd" d="M114.642 109.548C115.772 110.164 120.198 112.914 120.408 112.581C125.838 103.98 116.855 83.7838 114.72 76.4339C114.138 74.4299 112.589 68.1764 114.213 63C113.066 66.657 111.704 70.3169 111.713 74.6924C111.738 86.1883 119.03 97.8177 114.528 109.06C114.479 109.183 114.479 109.459 114.642 109.548ZM131.152 109.548C132.282 110.164 136.708 112.914 136.918 112.581C142.348 103.98 133.365 83.7838 131.23 76.4339C130.648 74.4299 129.099 68.1764 130.723 63C129.576 66.657 128.214 70.3169 128.223 74.6924C128.248 86.1883 135.54 97.8177 131.038 109.06C130.99 109.183 130.99 109.459 131.152 109.548ZM165.19 130.036C163.98 128.671 162.148 128.782 160.081 128.719C159.285 128.692 158.076 128.851 157.534 128.282C156.874 127.589 157.165 126.046 157.137 125.176C157.066 123.224 156.919 121.151 155.896 120.458C154.875 119.77 151.159 120.119 148.734 120.119H103.431C100.742 120.119 97.6697 119.644 95.7708 120.119C93.9168 120.586 93.8223 123.073 93.7038 125.375C93.6063 127.247 92.9763 128.692 90.8883 128.546C88.4598 128.38 86.0434 128.327 84.9454 129.946C83.4634 132.134 84.0244 134.44 84.6094 139.096H165.891C166.3 135.344 166.947 132.017 165.19 130.036ZM90.9393 142.657C92.8983 162.181 94.8243 181.739 96.7683 201.279H99.3617C99.8972 204.54 100.667 210.119 101.267 213H149.566C149.808 209.868 150.969 204.726 151.44 201.279H154.063C155.977 181.539 158.016 161.926 159.895 142.148H91.1073C90.9093 142.177 90.9228 142.415 90.9393 142.657Z" fill="white"/>
</g>
</mask>
<g mask="url(#mask0_104_6)">
<rect width="250" height="350" rx="10" fill="url(#paint1_linear_104_6)"/>
</g>
</g>
<defs>
<linearGradient id="paint0_linear_104_6" x1="44" y1="56" x2="225" y2="412.5" gradientUnits="userSpaceOnUse">
<stop stop-color="#0A0A0B"/>
<stop offset="1" stop-color="#110035"/>
</linearGradient>
<linearGradient id="paint1_linear_104_6" x1="-51.5" y1="-25" x2="307.5" y2="383" gradientUnits="userSpaceOnUse">
<stop stop-color="#F7DCFB"/>
<stop offset="1" stop-color="#FFBBD3"/>
</linearGradient>
<clipPath id="clip0_104_6">
<rect width="250" height="350" fill="white"/>
</clipPath>
</defs>
</svg>
